<svg xmlns="http://www.w3.org/2000/svg" width="20" height="20" fill="none" viewBox="0 0 20 20"><g fill="#D9A28C"><path d="M8.18 0H.91C.4 0 0 .4 0 .9v7.28c0 .5.4.91.9.91h7.28c.5 0 .91-.4.91-.9V.9C9.1.4 8.7 0 8.2 0ZM19.1 0h-7.28c-.5 0-.91.4-.91.9v7.28c0 .5.4.91.9.91h7.28c.5 0 .91-.4.91-.9V.9c0-.5-.4-.91-.9-.91ZM8.18 10.9H.91c-.5 0-.91.42-.91.92v7.27c0 .5.4.9.9.9h7.28c.5 0 .91-.4.91-.9v-7.27c0-.5-.4-.91-.9-.91ZM19.1 10.9h-7.28c-.5 0-.91.42-.91.92v7.27c0 .5.4.9.9.9h7.28c.5 0 .91-.4.91-.9v-7.27c0-.5-.4-.91-.9-.91Z"/></g></svg>