<svg xmlns="http://www.w3.org/2000/svg" width="26" height="21" fill="none" viewBox="0 0 26 21"><path fill="#D9A28C" fill-rule="evenodd" d="M10.4 0h5.2c4.92 0 7.38 0 8.9 1.54 1.06 1.06 1.38 2.56 1.49 5 .02.5.03.74-.06.9-.1.16-.45.36-1.17.77a2.63 2.63 0 0 0 0 4.58c.72.4 1.08.6 1.17.77.09.16.08.4.06.9-.1 2.44-.43 3.94-1.48 5C22.98 21 20.52 21 15.6 21h-5.22c-4.91 0-7.37 0-8.9-1.54C.44 18.4.12 16.9.01 14.46c-.02-.5-.03-.74.06-.9.1-.16.45-.36 1.17-.77a2.63 2.63 0 0 0 0-4.58C.52 7.8.16 7.6.07 7.44c-.09-.16-.08-.4-.06-.9.1-2.44.43-3.94 1.48-5C3.02 0 5.48 0 10.4 0Zm7.21 5.87c.38.38.38 1 0 1.39L9.8 15.13a.97.97 0 0 1-1.38 0 .99.99 0 0 1 0-1.39l7.82-7.87a.97.97 0 0 1 1.38 0Zm-1.34 9.22a1.3 1.3 0 0 0 0-2.63c-.72 0-1.3.6-1.3 1.32 0 .73.58 1.31 1.3 1.31ZM9.75 8.53c.72 0 1.3-.59 1.3-1.31a1.3 1.3 0 0 0-1.3-1.31 1.3 1.3 0 0 0 0 2.63Z"/></svg>
