<svg xmlns="http://www.w3.org/2000/svg" width="24" height="24" fill="none" viewBox="0 0 24 24"><path fill="#D9A28C" fill-rule="evenodd" d="M9.28.7 6.93 2.43c.92-.03 1.94-.03 3.04-.03h2.6c1.22 0 2.32 0 3.31.04L13.52.7a3.56 3.56 0 0 0-4.24 0Zm12.6 19.22c.17 0 .3.16.26.32-.24.83-.6 1.54-1.2 2.14a5.43 5.43 0 0 1-3.31 1.44c-1.32.18-3 .18-5.13.18h-2.44c-2.13 0-3.81 0-5.13-.18a5.43 5.43 0 0 1-3.32-1.44 5.51 5.51 0 0 1-1.43-3.35C0 17.7 0 16.01 0 13.87v-.14C0 11.6 0 9.9.18 8.57A5.51 5.51 0 0 1 1.6 5.22a5.43 5.43 0 0 1 3.32-1.44c1.32-.18 3-.18 5.13-.18h2.44c2.12 0 3.8 0 5.13.18 1.35.18 2.45.57 3.32 1.44.59.6.95 1.3 1.19 2.14a.26.26 0 0 1-.26.32h-2.92a6.15 6.15 0 0 0-6.17 6.12c0 3.5 2.9 6.12 6.17 6.12h2.92ZM4.34 8.26c-.48 0-.87.4-.87.88s.39.87.87.87h4.62a.87.87 0 0 0 0-1.75H4.34Zm17.54 1.17h.21c.97.06 1.83.83 1.9 1.9l.01.22V16.27a2.04 2.04 0 0 1-2.12 1.9h-2.92a4.4 4.4 0 0 1-4.44-4.37 4.4 4.4 0 0 1 4.44-4.37h2.92Zm-2.06 4.37c0 .64-.5 1.17-1.12 1.17-.61 0-1.11-.53-1.11-1.17 0-.64.5-1.17 1.11-1.17.62 0 1.12.53 1.12 1.17Z"/></svg>
