<svg xmlns="http://www.w3.org/2000/svg" fill="none" viewBox="0 0 20 20">
  <path fill="#D9A28C" d="M18.33 1.54h-2.5V.77c0-.2-.08-.4-.24-.54A.87.87 0 0 0 15 0a.87.87 0 0 0-.59.23.74.74 0 0 0-.24.54v.77H5.83V.77c0-.2-.08-.4-.24-.54A.87.87 0 0 0 5 0a.87.87 0 0 0-.59.23.74.74 0 0 0-.24.54v.77h-2.5c-.45 0-.87.16-1.18.45A1.5 1.5 0 0 0 0 3.08v15.38c0 .41.18.8.49 1.09.31.29.73.45 1.18.45h16.66c.45 0 .87-.16 1.18-.45.31-.29.49-.68.49-1.09V3.08c0-.41-.18-.8-.49-1.1a1.74 1.74 0 0 0-1.18-.44Zm0 4.61H1.67V3.08h2.5v.77c0 .2.08.4.24.54a.87.87 0 0 0 1.18 0 .74.74 0 0 0 .24-.54v-.77h8.34v.77c0 .2.08.4.24.54a.87.87 0 0 0 1.18 0 .74.74 0 0 0 .24-.54v-.77h2.5v3.07Z"/>
</svg>