<svg xmlns="http://www.w3.org/2000/svg" width="28" height="23" fill="none" viewBox="0 0 28 23"><path fill="#D9A28C" fill-rule="evenodd" d="M16.2 0h-5.4C5.7 0 3.16 0 1.58 1.6.44 2.78.12 4.44.03 7.2h26.92c-.09-2.77-.4-4.43-1.54-5.6C23.83 0 21.28 0 16.19 0Zm10.79 12.1-.55-.55a3 3 0 0 0-4.3 0l-1.08 1.1a3.04 3.04 0 0 0-2.84-2 3.06 3.06 0 0 0-3.04 3.08v2.42a3 3 0 0 0-1.8.89 3.13 3.13 0 0 0 0 4.37l.54.56H10.8c-5.1 0-7.64 0-9.22-1.6C0 18.74 0 16.16 0 10.98V9.27H27a362.88 362.88 0 0 1 0 2.84Zm-7.76 1.63c0-.57-.45-1.03-1.01-1.03s-1.02.46-1.02 1.03v5.75l-.97-.98a1 1 0 0 0-1.43 0c-.4.4-.4 1.05 0 1.45l2.7 2.75a1 1 0 0 0 1.43 0l2.7-2.75c.4-.4.4-1.05 0-1.45a1 1 0 0 0-1.43 0l-.97.98v-5.75ZM25 13a1 1 0 0 0-1.43 0l-2.7 2.75c-.39.4-.39 1.05 0 1.46a1 1 0 0 0 1.44 0l.97-1v5.76c0 .57.45 1.03 1 1.03.57 0 1.02-.46 1.02-1.03v-5.75l.97.99a1 1 0 0 0 1.43 0c.4-.4.4-1.06 0-1.46L25 13ZM5.4 15.45c-.56 0-1.01.46-1.01 1.03 0 .57.45 1.03 1 1.03h5.4c.56 0 1.02-.46 1.02-1.03 0-.57-.46-1.03-1.01-1.03H5.4Z"/></svg>
