<svg xmlns="http://www.w3.org/2000/svg" width="14" height="17" fill="none" viewBox="0 0 14 17"><path fill="#D9A28C" d="M13.82 4.76 9.36.2A.64.64 0 0 0 8.91 0H1.27C.94 0 .61.14.37.38.13.63 0 .96 0 1.31v14.38c0 .35.13.68.37.93.24.24.57.38.9.38h11.46c.33 0 .66-.14.9-.38.24-.25.37-.58.37-.93V5.23a.67.67 0 0 0-.18-.47Zm-4.27 7.66h-5.1a.63.63 0 0 1-.45-.19.66.66 0 0 1 0-.92c.12-.13.29-.2.45-.2h5.1a.66.66 0 0 1 .45 1.12.63.63 0 0 1-.45.2Zm0-2.61h-5.1A.63.63 0 0 1 4 9.6a.66.66 0 0 1 0-.92c.12-.12.29-.19.45-.19h5.1A.66.66 0 0 1 10 9.62a.63.63 0 0 1-.45.19ZM8.9 5.23v-3.6l3.5 3.6H8.9Z"/></svg>
