<svg xmlns="http://www.w3.org/2000/svg" width="26" height="18" fill="none" viewBox="0 0 26 18"><path fill="#D9A28C" d="M25.93 8.64c-.04-.09-.96-2.2-3-4.33a13.58 13.58 0 0 0-19.87 0A15.86 15.86 0 0 0 .07 8.64a.92.92 0 0 0 0 .72c.04.09.96 2.2 3 4.33a13.58 13.58 0 0 0 19.87 0 15.86 15.86 0 0 0 2.99-4.33.92.92 0 0 0 0-.72ZM13 4.95c.77 0 1.53.24 2.17.68a4.02 4.02 0 0 1 1.43 1.82 4.2 4.2 0 0 1-.84 4.41 3.77 3.77 0 0 1-4.25.88 3.94 3.94 0 0 1-1.75-1.49 4.16 4.16 0 0 1 .48-5.11A3.83 3.83 0 0 1 13 4.95Z"/></svg>
