<svg xmlns="http://www.w3.org/2000/svg" width="1302.8" height="918.6" fill="none" viewBox="0 0 1302.8 918.6"><g fill="#D9A28C" fill-opacity=".1"><path d="M1248 366.5c-25 20.5-60.2 32.4-96.6-8.6-69.4-78-89.8-132.6-198.5-105C835.2 283 815.6 223.7 732.7 165c-83-58.6-207.6-59.7-266 34.3-58.4 94-48.4 156-154.6 197.9C206 439 241.6 520.5 200.6 578c-24.3 33.9-78.6 48-119 53.9l51.3 241 1170-249.4-54.9-257Z"/><path d="M1221.2 437.8c-23.9 19.5-57.2 30.8-91.8-8.1-65.8-74.1-85.2-126-188.4-99.6-111.8 28.5-130.4-27.9-209-83.5-78.8-55.7-197.1-56.7-252.6 32.5-55.4 89.2-45.9 148-146.7 187.9-100.8 39.8-67 117-106 171.6-23 32.2-74.6 45.6-113 51.1l48.8 228.9 1110.7-236.7-52-244Z"/></g></svg>