<svg xmlns="http://www.w3.org/2000/svg" width="19.2" height="21" fill="none" viewBox="0 0 19.2 21"><g fill="#FFF"><path d="M.7 0a1 1 0 0 0-.6.5L0 .7v8l.1.2.3.4.2.1h3.6a49.3 49.3 0 0 0 4.1-.2c.4-.3.4-.1.3-4.6v-4L8.5.6 8.2 0H8L4.4 0H.7ZM5 3.2c.2.1.4.3.5.6l.1 1c0 .7 0 1-.3 1.2-.2.2-.4.3-1 .3-.9 0-1 0-1.3-.4C3 5.6 3 5.4 3 4.6l.1-.9.6-.5h1.5ZM11.2 0a1 1 0 0 0-.5.5l-.1.2v4c0 4.4 0 4.2.3 4.5l.3.2h7.4l.2-.1.3-.4.1-.2v-8l-.1-.2a1 1 0 0 0-.4-.3l-.2-.2h-7.3Zm4.6 3.3.4.4v1c.1.7 0 1-.1 1.2-.3.3-.4.4-1.2.4-.7 0-.9 0-1.1-.3-.3-.3-.3-.5-.3-1.3s0-1 .3-1.3c.3-.2.4-.2 1.1-.2l1 .1ZM.6 11.6c-.2 0-.4.3-.5.5l-.1.2v8l.1.2.4.3.2.2H8l.2-.1.3-.4.1-.2v-8a1 1 0 0 0-.5-.7H.6Zm4.6 3.2.3.2c.2.3.2.5.2 1.3s0 1-.3 1.2c-.3.3-.5.3-1.2.3-.6 0-.6 0-.8-.2a1 1 0 0 1-.4-.3v-1c-.1-.7 0-1 .1-1.2.3-.3.4-.4 1.2-.4l.9.1ZM11.1 11.6l-.5.6V14l.1.2c0 .2.2.3.3.4l.9.1h.6V16c0 1.3 0 1.4.3 1.7.2.2.4.3 1.1.3.7 0 .9 0 1.1-.3.3-.3.4-.4.4-1.9v-1.4l-.2-.2-.3-.4h-1.4V13c0-.6 0-.7-.2-1l-.3-.3-.2-.1h-1.7ZM15.9 11.6a1 1 0 0 0-.4.4l-.1 1c0 1 0 1.2.3 1.5.2.2.4.2 1 .2.8 0 1 0 1.2-.2.3-.3.3-.5.3-1.4l-.1-1.1a1 1 0 0 0-.4-.4H16ZM11.1 17.9l-.5.6v1.8l.1.2.3.4h1c.8 0 1 0 1.2-.2.2-.3.2-.4.2-1.3v-1L13 18l-.2-.2h-.7l-1 .1ZM15.9 18a1 1 0 0 0-.4.3l-.1 1c0 1 0 1.2.3 1.4.2.3.4.3 1 .3.8 0 1 0 1.2-.3.3-.2.3-.4.3-1.4l-.1-1a1 1 0 0 0-.4-.4H16Z"/></g></svg>