<svg xmlns="http://www.w3.org/2000/svg" width="30" height="28.35" fill="none" viewBox="0 0 30 28.35"><path fill="#FFF" d="M30 14.72c0-1.44-.37-2.86-1.08-4.08A7.24 7.24 0 0 0 26 7.82V6.54c0-1.4-.42-2.77-1.18-3.9A6.03 6.03 0 0 0 21.73.28a5.53 5.53 0 0 0-3.77.1A6.11 6.11 0 0 0 15 2.94 6.11 6.11 0 0 0 12.04.39 5.53 5.53 0 0 0 8.27.28 6.03 6.03 0 0 0 5.2 2.64 6.95 6.95 0 0 0 4 6.54v1.28c-1.2.62-2.2 1.6-2.92 2.82a8.15 8.15 0 0 0 0 8.17A7.24 7.24 0 0 0 4 21.62v.2c0 1.4.42 2.77 1.19 3.9a6.03 6.03 0 0 0 3.08 2.36c1.23.4 2.56.36 3.77-.11A6.11 6.11 0 0 0 15 25.43a6.11 6.11 0 0 0 2.96 2.54c1.22.47 2.54.51 3.77.1a6.03 6.03 0 0 0 3.09-2.35 6.95 6.95 0 0 0 1.18-3.9v-.2c1.2-.62 2.2-1.6 2.92-2.82A8.17 8.17 0 0 0 30 14.72ZM10 26.18c-.99 0-1.94-.4-2.67-1.12a4.51 4.51 0 0 1-1.3-2.78c.32.05.64.08.97.08h1c.27 0 .52-.12.7-.32.2-.2.3-.48.3-.77 0-.3-.1-.57-.3-.77a.96.96 0 0 0-.7-.32H7a4.76 4.76 0 0 1-3.22-1.29 5.59 5.59 0 0 1-1.7-3.25c-.2-1.26.02-2.57.62-3.68a5.13 5.13 0 0 1 2.64-2.38c.2-.08.36-.22.48-.4.12-.19.18-.4.18-.63v-2c0-1.17.42-2.28 1.17-3.1A3.84 3.84 0 0 1 10 2.19c1.06 0 2.08.46 2.83 1.28A4.57 4.57 0 0 1 14 6.54v10.4a5.66 5.66 0 0 0-4-1.67.96.96 0 0 0-.7.32c-.2.2-.3.48-.3.77 0 .29.1.57.3.77.18.2.44.32.7.32 1.06 0 2.08.46 2.83 1.28A4.57 4.57 0 0 1 14 21.8c0 1.16-.42 2.27-1.17 3.09A3.84 3.84 0 0 1 10 26.18Zm13-6h-1a.96.96 0 0 0-.7.32c-.2.2-.3.48-.3.77 0 .29.1.57.3.77.18.2.44.32.7.32h1c.33 0 .65-.03.98-.08a4.58 4.58 0 0 1-.88 2.29 4 4 0 0 1-1.87 1.4c-.74.26-1.53.28-2.27.06a3.96 3.96 0 0 1-1.94-1.3 4.73 4.73 0 0 1-.68-4.7c.32-.76.83-1.42 1.48-1.88.65-.46 1.4-.7 2.18-.7.27 0 .52-.11.7-.32.2-.2.3-.48.3-.77 0-.29-.1-.57-.3-.77a.96.96 0 0 0-.7-.32c-1.48 0-2.9.6-4 1.68V6.55c0-1.17.42-2.28 1.17-3.1A3.84 3.84 0 0 1 20 2.19c1.06 0 2.08.46 2.83 1.28A4.57 4.57 0 0 1 24 6.54v2c0 .23.06.45.18.64.12.18.29.32.48.4a5.13 5.13 0 0 1 2.65 2.38c.6 1.11.81 2.42.61 3.68a5.59 5.59 0 0 1-1.7 3.25A4.76 4.76 0 0 1 23 20.18Zm-16.5-6a.96.96 0 0 1-.7-.32c-.2-.2-.3-.48-.3-.77 0-.3.1-.57.3-.77.18-.2.44-.32.7-.32.66 0 1.3-.3 1.77-.8.46-.52.73-1.2.73-1.93v-1.1c0-.28.1-.56.3-.76.18-.2.44-.32.7-.32.27 0 .52.11.7.32.2.2.3.48.3.77v1.09c0 1.3-.47 2.55-1.32 3.47a4.32 4.32 0 0 1-3.18 1.44Zm18-1.1c0 .3-.1.57-.3.78a.96.96 0 0 1-.7.32c-1.2 0-2.34-.52-3.18-1.44A5.14 5.14 0 0 1 19 9.27v-1.1c0-.28.1-.56.3-.76.18-.2.44-.32.7-.32.27 0 .52.11.7.32.2.2.3.48.3.77v1.09c0 .72.27 1.41.74 1.92.46.51 1.1.8 1.76.8.27 0 .52.12.7.33.2.2.3.48.3.77Z"/></svg>
