<svg xmlns="http://www.w3.org/2000/svg" width="26" height="21" fill="none" viewBox="0 0 26 21"><path fill="#D9A28C" fill-rule="evenodd" d="M15.6 0h-5.2C5.5 0 3.05 0 1.52 1.54.42 2.64.12 4.24.03 6.89h25.94c-.09-2.65-.4-4.25-1.5-5.35C22.96 0 20.5 0 15.6 0ZM10.4 21h5.2c4.9 0 7.35 0 8.88-1.54C26 17.92 26 15.45 26 10.5V8.86H0v1.64c0 4.95 0 7.42 1.52 8.96C3.05 21 5.5 21 10.4 21Z"/><path fill="#D9A28C" fill-rule="evenodd" d="M10.4 21h5.2c4.9 0 7.35 0 8.88-1.54C26 17.92 26 15.45 26 10.5V8.86H0v1.64c0 4.95 0 7.42 1.52 8.96C3.05 21 5.5 21 10.4 21Z"/><path fill="#D9A28C" fill-rule="evenodd" d="M4.22 15.75c0-.54.44-.98.98-.98h5.2c.54 0 .97.44.97.98s-.43.98-.97.98H5.2a.98.98 0 0 1-.98-.98Z"/><path fill="#FFF" fill-rule="evenodd" d="M4.22 15.75c0-.54.44-.98.98-.98h5.2c.54 0 .97.44.97.98s-.43.98-.97.98H5.2a.98.98 0 0 1-.98-.98Z"/><path fill="#D9A28C" fill-rule="evenodd" d="M12.68 15.75c0-.54.43-.98.97-.98h1.95c.54 0 .97.44.97.98s-.43.98-.97.98h-1.95a.98.98 0 0 1-.97-.98Z"/><path fill="#FFF" fill-rule="evenodd" d="M12.68 15.75c0-.54.43-.98.97-.98h1.95c.54 0 .97.44.97.98s-.43.98-.97.98h-1.95a.98.98 0 0 1-.97-.98Z"/></svg>
