<svg xmlns="http://www.w3.org/2000/svg" width="27" height="24" fill="none" viewBox="0 0 27 24"><path fill="#D9A28C" d="M27 7.5c0 3.82-2.21 7.75-6.57 11.67a39.29 39.29 0 0 1-6.44 4.7 1.01 1.01 0 0 1-.98 0c-.4-.22-7.55-4.28-11.07-10.1a.5.5 0 0 1 .42-.77H6.5a.99.99 0 0 0 .84-.45L8.5 10.8l3.16 4.75a1.01 1.01 0 0 0 1.15.4c.22-.08.4-.22.54-.41L15.04 13h2.42a1.02 1.02 0 0 0 1.04-.94 1 1 0 0 0-1-1.06h-3a.99.99 0 0 0-.84.45L12.5 13.2 9.34 8.45a1.01 1.01 0 0 0-1.15-.4c-.22.08-.4.22-.54.41L5.96 11H.97a.5.5 0 0 1-.47-.35C.18 9.63 0 8.57 0 7.5A7.5 7.5 0 0 1 13.5 3 7.5 7.5 0 0 1 27 7.5Z"/></svg>
