<svg xmlns="http://www.w3.org/2000/svg" fill="none" viewBox="0 0 42 56" width="42.000000" height="56.000122"><g fill="#D8A28B" fill-rule="evenodd"><path d="M.72 26.64c-2.89 14.5 3.05 24.3 14.87 28.2l-.08-.08C4.51 45.13-.63 33.8 1.81 22.32c-.44 1.45-.8 2.9-1.09 4.32Z"/><path d="M12.3 6.7C-2.14 22.44.6 39.48 16.62 53.5 14.2 47.4 13 40.62 14.91 34.28c2.28-7.55 8.32-12.3 15.45-15.02 1.33-.51 2.68-.95 4.04-1.32a37.89 37.89 0 0 0-7.16-10.99A59.1 59.1 0 0 0 19.66 0a59.5 59.5 0 0 0-7.35 6.7Z"/><path d="M31 20.91C15.36 26.9 12.04 40.24 19.65 56c17.05-3.4 25.68-14 21.16-30a43.85 43.85 0 0 0-2.73-7.1A43.9 43.9 0 0 0 31 20.91Z"/></g></svg>