<svg viewBox="0 0 56.3218 75.4307" xmlns="http://www.w3.org/2000/svg" xmlns:xlink="http://www.w3.org/1999/xlink" width="56.321777" height="75.430664" fill="none" customFrame="#000000">
	<g id="Group 1">
		<path id="Vector" d="M0.971253 35.8861C-2.90852 55.4168 5.05647 68.6036 20.91 73.8561L20.8045 73.7634C6.0511 60.7884 -0.849621 45.5073 2.43104 30.0615C1.84099 32.0231 1.35271 33.9664 0.971253 35.8861Z" fill="rgb(255,255,255)" fill-rule="evenodd" />
		<path id="Vector" d="M16.5021 9.0307C-2.88654 30.2159 0.787819 53.1592 22.2808 72.0615C19.0367 63.8597 17.4159 54.7187 19.9931 46.1671C23.0546 36.01 31.1467 29.6142 40.7172 25.9354C42.4904 25.2537 44.3007 24.6683 46.1336 24.1673C44.1041 19.1887 40.9264 14.2302 36.5331 9.36116C33.5816 6.09081 30.1787 2.96712 26.3703 -0.000976562C22.6891 2.86642 19.3862 5.87964 16.5021 9.0307Z" fill="rgb(255,255,255)" fill-rule="evenodd" />
		<path id="Vector" d="M41.5643 28.1681C20.591 36.2295 16.1439 54.2006 26.3505 75.4303C49.2102 70.8477 60.7831 56.57 54.7281 35.0332C53.8433 31.8869 52.6113 28.6881 51.0597 25.458C47.6818 26.1366 44.5067 27.0371 41.5643 28.1681Z" fill="rgb(255,255,255)" fill-rule="evenodd" />
	</g>
</svg>
